<svg width="1412" height="1313" viewBox="0 0 1412 1313" fill="none" xmlns="http://www.w3.org/2000/svg">
<g opacity="0.33">
<path d="M832.039 1226.01C734.425 1188.16 628.888 1200.22 527.748 1180.61C444.586 1164.49 361.492 1124.21 305.181 1047.68C248.871 971.139 225.342 853.646 263.058 761.607C295.52 682.387 369.093 623.79 369.982 535.197C370.346 498.96 357.791 464.691 350.121 429.688C323.969 310.323 359.384 174.176 437.125 95.2042C486.078 45.4803 556.224 18.5658 614.56 49.6778C651.4 69.3222 678.997 109.123 715.535 129.599C761.549 155.388 814.724 147.262 865.287 150.213C917.519 153.26 970.601 169.63 1012.42 208.017C1054.23 246.403 1083.02 309.27 1078.5 372.963C1076.59 399.928 1069.56 429.873 1082.21 452.086C1087.72 461.77 1096.2 468.175 1104.26 474.66C1158.13 518.008 1204.09 577.999 1229.74 650.343C1255.39 722.688 1259.4 807.734 1234.49 880.456C1217.39 930.352 1187.86 972.453 1155.59 1009.45C1083.2 1092.44 994.494 1153.98 899.102 1187.39" fill="#16FFF1"/>
</g>
<path opacity="0.33" d="M728.101 1312.81C1024.73 1312.81 1265.19 1279.48 1265.19 1238.36C1265.19 1197.24 1024.73 1163.91 728.101 1163.91C431.475 1163.91 191.012 1197.24 191.012 1238.36C191.012 1279.48 431.475 1312.81 728.101 1312.81Z" fill="#16FFF1"/>
<path d="M1235.43 817.413C1211.31 853.802 1185.36 888.377 1157.77 920.882C1130.38 953.153 1101.39 983.413 1070.98 1011.35C1053.73 1027.18 1036.04 1042.28 1017.94 1056.62C1014.55 1059.31 1017.71 1065.98 1021.13 1063.27C1053.5 1037.62 1084.58 1009.52 1114.14 979.211C1143.49 949.111 1171.34 916.815 1197.46 882.551C1212.16 863.263 1226.31 843.35 1239.89 822.87C1240.96 821.254 1241.18 819 1239.89 817.422C1238.78 816.057 1236.51 815.789 1235.43 817.413Z" fill="#0CCEB3"/>
<path d="M1229.48 832.21C1236.6 803.738 1244.33 775.232 1256.46 749.422C1268.6 723.611 1285.52 700.407 1307.28 687.034C1313.27 683.353 1319.82 680.394 1326.52 680.906C1333.21 681.422 1340.04 686.132 1342.29 693.859C1343.52 698.099 1343.29 702.766 1342.65 707.195C1340.2 723.888 1332.19 738.529 1323.52 751.764C1299.34 788.639 1264.18 811.398 1229.48 832.21Z" fill="#0CCEB3"/>
<path d="M1088.64 998.369C1083.56 969.25 1079.02 939.742 1079.39 909.973C1079.76 880.204 1085.35 849.877 1099.07 825.284C1102.85 818.509 1107.41 812.036 1113.47 808.515C1119.52 804.997 1127.36 805.069 1132.39 810.488C1135.15 813.464 1136.81 817.678 1138 821.934C1142.49 837.981 1141.29 855.535 1138.96 872.254C1132.45 918.838 1110.73 959.592 1088.64 998.369Z" fill="#0CCEB3"/>
<path d="M1176.97 902.237C1172.63 883.726 1168.62 864.917 1167.84 845.579C1167.06 826.241 1169.71 806.16 1177.89 789.193C1180.15 784.522 1182.93 779.984 1186.79 777.256C1190.66 774.527 1195.82 773.994 1199.32 777.142C1201.24 778.867 1202.47 781.482 1203.4 784.156C1206.9 794.235 1206.72 805.711 1205.75 816.725C1203.07 847.421 1190.17 875.457 1176.97 902.237Z" fill="#0CCEB3"/>
<path d="M1193.39 882.408C1216.45 860.954 1259.38 824.662 1287.66 816.952C1303.02 812.762 1320.89 811.516 1332.71 824.226C1336.09 827.861 1338.87 832.932 1338.66 838.43C1338.44 844.605 1334.6 849.625 1330.73 853.596C1313.1 871.671 1290.21 880.397 1267.44 884.414C1242.89 888.746 1217.76 888.062 1193.39 882.408Z" fill="#0CCEB3"/>
<path d="M1064.62 1023.48C1092.79 1015.22 1144.04 1003.19 1172.47 1010.08C1187.91 1013.82 1204.67 1021.5 1211.29 1038.96C1213.18 1043.95 1214.05 1049.96 1212.05 1054.9C1209.81 1060.44 1204.65 1063.14 1199.79 1064.86C1177.69 1072.7 1153.86 1069.4 1131.7 1061.84C1107.82 1053.69 1085.05 1040.67 1064.62 1023.48Z" fill="#0CCEB3"/>
<path d="M1142.2 944.674C1165.98 932.774 1209.56 913.734 1235.23 915.064C1249.17 915.786 1264.71 919.736 1272.45 933.941C1274.66 938.004 1276.09 943.125 1274.88 947.78C1273.53 953.006 1269.31 956.23 1265.24 958.542C1246.75 969.074 1225.5 970.128 1205.24 967.173C1183.4 963.995 1162.01 956.355 1142.2 944.674Z" fill="#0CCEB3"/>
<path d="M164.583 757.418C191.984 777.474 218.373 799.578 243.56 823.588C268.565 847.426 292.403 873.11 314.836 900.507C327.553 916.038 339.824 932.111 351.635 948.682C353.849 951.789 357.983 947.818 355.751 944.691C334.622 915.052 312 887.004 288.063 860.753C264.294 834.682 239.217 810.391 213.013 788.073C198.264 775.509 183.16 763.576 167.738 752.289C166.522 751.399 164.974 751.441 164.061 752.931C163.274 754.199 163.357 756.524 164.583 757.418Z" fill="#0CCEB3"/>
<path d="M175.267 761.683C155.213 757.859 135.063 753.414 116.214 744.209C97.3645 735.003 79.7102 720.66 68.1261 700.286C64.9331 694.674 62.1658 688.411 61.7264 681.594C61.2869 674.782 63.6628 667.339 68.6137 664.162C71.3294 662.42 74.5053 662.097 77.5713 662.231C89.1245 662.726 99.9533 669.094 109.907 676.284C137.638 696.327 157.139 729.123 175.267 761.683Z" fill="#0CCEB3"/>
<path d="M303.993 884.213C284.938 892.763 265.554 900.822 245.421 903.949C225.284 907.081 204.159 905.007 185.941 894.056C180.925 891.042 176.019 887.205 172.929 881.505C169.842 875.809 168.967 867.893 172.033 862.18C173.715 859.044 176.366 856.878 179.099 855.178C189.399 848.76 201.391 847.904 212.948 848.294C245.16 849.382 275.222 866.495 303.993 884.213Z" fill="#0CCEB3"/>
<path d="M228.714 806.42C216.728 812.976 204.505 819.231 191.548 822.291C178.587 825.351 164.723 825.053 152.308 818.79C148.889 817.065 145.5 814.798 143.203 811.218C140.906 807.637 139.941 802.495 141.655 798.596C142.595 796.455 144.213 794.906 145.909 793.651C152.298 788.929 160.068 787.766 167.614 787.443C188.647 786.536 209.086 796.245 228.714 806.42Z" fill="#0CCEB3"/>
<path d="M213.398 792.178C196.204 771.438 166.656 732.409 158.121 704.785C153.483 689.779 150.544 671.902 157.73 658.478C159.786 654.637 162.88 651.242 166.615 650.797C170.811 650.297 174.649 653.571 177.784 657.013C192.056 672.67 200.643 694.741 206.033 717.239C211.849 741.497 214.345 766.93 213.398 792.178Z" fill="#0CCEB3"/>
<path d="M323.77 905.494C314.881 878.038 300.725 827.752 302.033 798.264C302.744 782.246 305.951 764.436 316.954 755.701C320.103 753.204 324.055 751.617 327.622 753.057C331.625 754.669 334.056 759.559 335.79 764.256C343.683 785.625 344.256 810.051 341.764 833.297C339.079 858.356 332.971 882.861 323.77 905.494Z" fill="#0CCEB3"/>
<path d="M261.451 836.499C250.619 813.908 232.638 772.185 230.516 746.131C229.363 731.977 230.201 715.837 238.877 706.359C241.359 703.648 244.648 701.604 247.93 702.275C251.618 703.027 254.289 706.905 256.332 710.733C265.616 728.153 268.829 749.464 269.221 770.25C269.639 792.656 267.003 815.142 261.451 836.499Z" fill="#0CCEB3"/>
<path d="M1084.74 485.931C1094.83 453.543 1108.28 422.737 1124.48 394.295C1140.68 365.852 1159.72 339.819 1181.01 316.926C1193.02 304.014 1205.74 292.152 1219.1 281.406C1221.92 279.144 1219.29 273.578 1216.45 275.857C1192.24 295.33 1170.02 318.466 1150.42 344.554C1130.94 370.474 1113.96 399.273 1100.11 430.129C1092.28 447.553 1085.46 465.644 1079.67 484.218C1079.17 485.838 1080.23 487.74 1081.51 488.168C1082.98 488.672 1084.23 487.559 1084.74 485.931Z" fill="#1BD0B5"/>
<path d="M1103.7 436.442C1125.18 414.741 1149.87 397.72 1176.17 386.441C1183.6 383.251 1191.17 380.522 1198.83 378.243C1202.11 377.265 1200.72 371.065 1197.43 372.048C1169.69 380.313 1143.13 394.614 1119.44 414.103C1112.72 419.635 1106.23 425.591 1099.98 431.9C1097.38 434.536 1101.11 439.057 1103.7 436.442Z" fill="#1BD0B5"/>
<path d="M1179.98 315.423C1176.04 274.854 1189.79 232.35 1215.37 206.057C1229.53 191.495 1246.81 181.9 1264.72 176.2C1276.3 172.514 1288.17 170.403 1300.01 168.296C1310.26 166.474 1320.51 164.648 1330.77 162.826C1331.73 162.654 1332.84 162.533 1333.56 163.334C1334.43 164.295 1334.23 165.987 1333.97 167.381C1332.07 177.492 1330.17 187.604 1327.8 197.565C1319.1 234.054 1303.4 269.179 1278.68 292.207C1251.74 317.278 1212.53 326.735 1179.98 315.423Z" fill="#47FFE1"/>
<path d="M1170.54 384.699C1182.58 354.569 1207.53 332.721 1234.73 328.482C1249.8 326.135 1265.21 328.901 1279.64 334.702C1288.97 338.455 1297.92 343.446 1306.86 348.428C1314.59 352.743 1322.33 357.058 1330.07 361.373C1330.79 361.781 1331.6 362.297 1331.81 363.241C1332.06 364.375 1331.31 365.437 1330.62 366.255C1325.63 372.195 1320.64 378.143 1315.38 383.721C1296.11 404.171 1272.51 419.87 1247.08 422.317C1219.38 424.987 1188.89 410.203 1170.54 384.699Z" fill="#0CCEB3"/>
<path d="M373.804 947.7C361.512 978.934 345.997 1008.25 327.893 1034.92C309.786 1061.6 289.021 1085.57 266.23 1106.19C253.379 1117.82 239.879 1128.34 225.833 1137.67C222.874 1139.63 225.112 1145.45 228.093 1143.47C253.554 1126.56 277.289 1105.79 298.624 1081.81C319.821 1057.99 338.715 1031.04 354.649 1001.72C363.648 985.159 371.685 967.836 378.734 949.925C379.349 948.364 378.418 946.357 377.179 945.799C375.74 945.148 374.422 946.13 373.804 947.7Z" fill="#1BD0B5"/>
<path d="M351.497 995.061C328.593 1014.47 302.826 1028.89 275.847 1037.43C268.215 1039.84 260.49 1041.78 252.703 1043.27C249.362 1043.9 250.323 1050.22 253.668 1049.58C281.879 1044.2 309.322 1032.68 334.269 1015.7C341.352 1010.89 348.225 1005.62 354.886 999.972C357.667 997.613 354.258 992.723 351.497 995.061Z" fill="#1BD0B5"/>
<path d="M259.195 1113.51C260.325 1154.34 243.694 1195.28 216.399 1218.84C201.282 1231.89 183.408 1239.68 165.17 1243.52C153.38 1246 141.407 1246.88 129.463 1247.76C119.122 1248.52 108.78 1249.28 98.4357 1250.05C97.4641 1250.12 96.3517 1250.13 95.689 1249.25C94.8925 1248.21 95.2015 1246.54 95.5586 1245.18C98.1508 1235.3 100.743 1225.42 103.792 1215.74C114.967 1180.27 133.03 1146.89 159.257 1126.49C187.816 1104.27 227.533 1098.89 259.195 1113.51Z" fill="#0CCEB3"/>
<path d="M281.33 1039.74C267.264 1068.52 240.899 1087.73 213.497 1089.15C198.322 1089.94 183.16 1085.59 169.18 1078.33C160.143 1073.63 151.563 1067.73 143.004 1061.85C135.591 1056.75 128.179 1051.66 120.766 1046.56C120.069 1046.08 119.3 1045.48 119.159 1044.52C118.991 1043.37 119.812 1042.38 120.55 1041.64C125.93 1036.23 131.313 1030.82 136.937 1025.8C157.544 1007.41 182.144 994.192 207.657 994.373C235.443 994.57 264.805 1012.44 281.33 1039.74Z" fill="#47FFE1"/>
<path d="M325.696 315.087C324.127 315.033 322.472 316.699 322.54 318.731C323.711 352.987 325.545 387.28 329.874 421.18C333.915 452.842 340.246 484.096 349.997 513.882C353.489 524.544 357.482 534.954 361.911 545.078C352.435 535.579 343.24 525.669 334.389 515.301C334.197 514.965 333.949 514.679 333.64 514.428C332.116 512.635 330.554 510.893 329.054 509.072C313.875 490.649 299.815 470.727 287.75 449.114C286.703 447.238 285.694 445.328 284.674 443.427C287.156 409.914 286.075 376.031 281.519 342.845C280.245 333.556 278.686 324.326 276.863 315.171C275.929 310.483 269.952 312.187 270.889 316.896C277.316 349.192 280.324 382.42 279.792 415.652C279.699 421.373 279.469 427.086 279.17 432.794C270.048 414.455 262.158 395.21 255.106 375.557C245.949 350.048 238.008 323.797 232.82 296.635C232.185 293.302 231.591 289.961 231.038 286.607C230.259 281.872 224.285 283.593 225.064 288.332C229.638 316.103 237.229 342.984 246.176 369.072C255.134 395.193 265.403 420.739 277.958 444.572C289.8 467.046 303.636 487.874 318.829 507.082C319.09 507.414 319.361 507.737 319.626 508.064C305.257 501.184 291.431 492.68 278.336 482.661C261.252 469.59 245.469 454.059 231.416 436.391C223.461 426.389 216.072 415.723 209.309 404.486C208.327 402.853 206.095 403.004 204.972 404.272C203.64 405.775 203.809 407.936 204.797 409.574C217.023 429.885 231.303 448.199 247.158 464.318C262.907 480.327 280.221 494.032 298.641 504.983C308.79 511.019 319.251 516.245 329.96 520.598C341.977 534.664 354.663 547.873 367.744 560.432C384.996 576.996 402.97 592.414 421.249 607.235C423.453 609.023 425.664 610.799 427.875 612.57C431.185 615.219 434.471 608.88 431.168 606.236C413.023 591.708 395.132 576.673 377.886 560.579C376.842 559.606 375.826 558.59 374.789 557.608C374.758 557.536 374.765 557.452 374.731 557.381C365.378 538.941 357.9 519.234 351.926 498.846C352.036 498.603 352.174 498.41 352.246 498.112C357.876 474.824 360.194 450.365 358.989 426.129C358.889 424.105 357.77 422.334 356.009 422.271C354.464 422.216 352.754 423.883 352.853 425.914C353.866 446.231 352.387 466.609 348.466 486.355C347.267 481.746 346.117 477.116 345.06 472.452C337.932 440.95 333.929 408.503 331.563 375.985C330.183 357 329.328 337.968 328.679 318.928C328.607 316.922 327.436 315.15 325.696 315.087Z" fill="#2D0E03"/>
<path d="M207.678 382.537C216.213 385.732 221.013 396.779 218.4 407.215C215.787 417.65 206.751 423.518 198.216 420.323C189.68 417.129 184.881 406.081 187.493 395.646C190.106 385.207 199.143 379.343 207.678 382.537Z" fill="#FF5E1E"/>
<path d="M230.118 266.514C238.654 269.708 243.453 280.756 240.841 291.191C238.228 301.626 229.191 307.494 220.656 304.3C212.121 301.105 207.321 290.057 209.934 279.622C212.55 269.187 221.586 263.319 230.118 266.514Z" fill="#FF5E1E"/>
<path d="M277.409 293.663C285.944 296.857 290.744 307.905 288.131 318.34C285.519 328.775 276.482 334.644 267.947 331.449C259.412 328.255 254.612 317.207 257.225 306.772C259.837 296.337 268.874 290.469 277.409 293.663Z" fill="#FF5E1E"/>
<path d="M330.681 363.376C339.216 366.57 344.016 377.618 341.403 388.053C338.791 398.488 329.754 404.356 321.219 401.162C312.683 397.967 307.884 386.92 310.496 376.484C313.109 366.049 322.146 360.177 330.681 363.376Z" fill="#FF5E1E"/>
<path d="M259.123 455.478C267.658 458.672 272.458 469.72 269.845 480.155C267.233 490.59 258.196 496.458 249.661 493.264C241.126 490.069 236.326 479.022 238.939 468.587C241.551 458.152 250.588 452.283 259.123 455.478Z" fill="#FF5E1E"/>
<path d="M364.184 405.716C372.719 408.91 377.519 419.958 374.906 430.393C372.293 440.828 363.257 446.696 354.721 443.502C346.186 440.308 341.386 429.26 343.999 418.825C346.612 408.39 355.648 402.522 364.184 405.716Z" fill="#FF5E1E"/>
<path d="M327.354 294.906C335.889 298.1 340.689 309.148 338.076 319.583C335.464 330.018 326.427 335.886 317.892 332.692C309.356 329.497 304.557 318.449 307.169 308.014C309.786 297.579 318.819 291.711 327.354 294.906Z" fill="#FF5E1E"/>
<path d="M1217.81 662.944C1217.76 661.576 1216.71 660.22 1215.53 660.384C1195.63 663.154 1175.74 666.504 1156.21 672.007C1137.97 677.145 1120.08 684.255 1103.22 694.271C1097.19 697.855 1091.32 701.868 1085.65 706.242C1090.7 697.503 1096.01 688.99 1101.59 680.755C1101.78 680.57 1101.93 680.339 1102.06 680.058C1103.03 678.639 1103.97 677.187 1104.95 675.789C1114.91 661.626 1125.8 648.366 1137.77 636.752C1138.81 635.744 1139.88 634.766 1140.93 633.784C1160.58 634.233 1180.27 631.56 1199.37 625.897C1204.72 624.31 1210.02 622.484 1215.26 620.428C1217.94 619.374 1216.64 614.257 1213.95 615.315C1195.46 622.564 1176.25 626.879 1156.86 628.113C1153.52 628.328 1150.18 628.416 1146.84 628.445C1157.06 619.563 1167.87 611.709 1178.96 604.561C1193.36 595.285 1208.24 587.028 1223.81 581.118C1225.72 580.392 1227.64 579.708 1229.56 579.053C1232.28 578.133 1230.97 573.017 1228.25 573.94C1212.3 579.342 1197.03 587.33 1182.28 596.452C1167.52 605.585 1153.16 615.836 1139.92 627.992C1127.43 639.451 1116 652.568 1105.58 666.781C1105.4 667.029 1105.23 667.276 1105.05 667.524C1108.33 654.658 1112.57 642.184 1117.74 630.267C1124.49 614.719 1132.73 600.179 1142.31 587.041C1147.73 579.603 1153.56 572.622 1159.76 566.158C1160.67 565.218 1160.47 563.283 1159.67 562.372C1158.72 561.289 1157.47 561.545 1156.57 562.489C1145.36 574.175 1135.42 587.549 1126.84 602.177C1118.31 616.709 1111.22 632.491 1105.78 649.093C1102.78 658.239 1100.27 667.616 1098.28 677.166C1090.7 688.352 1083.65 700.071 1077 712.106C1068.23 727.977 1060.17 744.418 1052.47 761.095C1051.54 763.106 1050.61 765.121 1049.7 767.14C1048.32 770.158 1052.18 772.697 1053.55 769.683C1061.09 753.137 1068.94 736.787 1077.43 720.946C1077.95 719.989 1078.49 719.049 1079.01 718.096C1079.05 718.066 1079.1 718.066 1079.13 718.033C1089.4 708.945 1100.5 701.427 1112.07 695.181C1112.22 695.265 1112.34 695.374 1112.52 695.421C1126.38 699.135 1140.74 699.904 1154.81 697.616C1155.98 697.427 1156.96 696.361 1156.9 694.82C1156.85 693.473 1155.8 692.067 1154.61 692.26C1142.83 694.178 1130.88 693.935 1119.18 691.525C1121.8 690.245 1124.44 689.007 1127.1 687.848C1145.09 680.028 1163.79 674.886 1182.62 671.163C1193.61 668.989 1204.66 667.276 1215.71 665.736C1216.89 665.576 1217.86 664.464 1217.81 662.944Z" fill="#2D0E03"/>
<path d="M1172.48 563.61C1171.06 571.208 1164.86 575.951 1158.65 574.209C1152.44 572.467 1148.56 564.895 1149.98 557.301C1151.41 549.704 1157.6 544.96 1163.81 546.702C1170.02 548.444 1173.91 556.017 1172.48 563.61Z" fill="#FF5E1E"/>
<path d="M1241.23 577.227C1239.81 584.824 1233.61 589.568 1227.4 587.826C1221.19 586.084 1217.31 578.511 1218.73 570.918C1220.16 563.32 1226.35 558.577 1232.56 560.319C1238.77 562.061 1242.66 569.629 1241.23 577.227Z" fill="#FF5E1E"/>
<path d="M1227.83 619.798C1226.4 627.396 1220.21 632.139 1214 630.397C1207.78 628.655 1203.9 621.083 1205.33 613.489C1206.75 605.892 1212.95 601.149 1219.16 602.891C1225.37 604.633 1229.25 612.201 1227.83 619.798Z" fill="#FF5E1E"/>
<path d="M1189.93 669.757C1188.51 677.355 1182.32 682.098 1176.1 680.356C1169.89 678.614 1166.01 671.042 1167.44 663.448C1168.86 655.851 1175.05 651.107 1181.26 652.849C1187.48 654.591 1191.36 662.16 1189.93 669.757Z" fill="#FF5E1E"/>
<path d="M1132.61 612.142C1131.19 619.739 1124.99 624.483 1118.78 622.741C1112.57 620.999 1108.69 613.426 1110.11 605.833C1111.54 598.235 1117.73 593.492 1123.94 595.234C1130.16 596.976 1134.04 604.544 1132.61 612.142Z" fill="#FF5E1E"/>
<path d="M1166.98 701.096C1165.55 708.693 1159.36 713.436 1153.15 711.695C1146.93 709.953 1143.05 702.38 1144.48 694.787C1145.9 687.189 1152.09 682.446 1158.31 684.188C1164.52 685.93 1168.4 693.498 1166.98 701.096Z" fill="#FF5E1E"/>
<path d="M1229.66 663.36C1228.23 670.958 1222.04 675.701 1215.83 673.959C1209.61 672.217 1205.73 664.644 1207.16 657.051C1208.58 649.454 1214.78 644.71 1220.99 646.452C1227.2 648.194 1231.08 655.763 1229.66 663.36Z" fill="#FF5E1E"/>
<path d="M161.808 535.008C162.523 529.841 164.205 524.879 166.691 520.611C167.978 518.398 169.513 516.337 171.453 515.019C172.5 514.306 173.684 513.819 174.883 513.882C176.081 513.949 177.293 514.629 177.949 515.859C178.968 517.773 178.405 520.363 177.461 522.336C175.864 525.664 173.334 528.179 170.656 530.215C167.978 532.255 165.104 533.887 162.423 535.919" fill="#FF5E1E"/>
<path d="M162.351 534.588C165.956 531.755 170.09 529.933 174.347 529.308C176.551 528.985 178.831 528.985 180.936 529.849C182.072 530.32 183.164 531.058 183.933 532.188C184.698 533.317 185.104 534.87 184.801 536.288C184.331 538.501 182.384 539.735 180.554 540.205C177.468 541.002 174.244 540.406 171.209 539.357C168.174 538.307 165.249 536.813 162.214 535.755" fill="#FF5E1E"/>
<path d="M163.182 533.929C159.477 536.561 155.278 538.156 151.007 538.547C148.793 538.752 146.516 538.626 144.446 537.644C143.327 537.115 142.262 536.314 141.538 535.147C140.813 533.976 140.467 532.401 140.82 530.999C141.373 528.817 143.361 527.688 145.205 527.318C148.319 526.689 151.515 527.461 154.509 528.674C157.503 529.887 160.37 531.545 163.36 532.763" fill="#FF5E1E"/>
<path d="M163.12 535.923C159.59 532.947 156.624 528.985 154.513 524.426C153.417 522.067 152.538 519.494 152.38 516.787C152.295 515.322 152.432 513.806 152.988 512.505C153.544 511.204 154.561 510.15 155.749 509.945C157.599 509.621 159.281 511.343 160.342 513.223C162.135 516.396 162.928 520.262 163.305 524.095C163.683 527.923 163.683 531.797 164.054 535.629" fill="#FF5E1E"/>
<path d="M163.494 536.675C165.468 541.325 166.57 546.526 166.687 551.765C166.749 554.476 166.536 557.255 165.637 559.736C165.149 561.075 164.445 562.338 163.456 563.169C162.468 564 161.163 564.345 160.037 563.845C158.279 563.069 157.455 560.584 157.239 558.313C156.875 554.48 157.657 550.61 158.79 547.013C159.927 543.416 161.414 539.995 162.553 536.398" fill="#FF5E1E"/>
<path d="M161.922 535.835C160.734 540.868 158.602 545.569 155.738 549.464C154.255 551.483 152.538 553.318 150.489 554.359C149.38 554.921 148.161 555.244 146.976 555.009C145.792 554.778 144.652 553.931 144.113 552.621C143.275 550.577 144.075 548.083 145.198 546.253C147.093 543.168 149.84 541.023 152.689 539.365C155.539 537.707 158.547 536.481 161.396 534.836" fill="#FF5E1E"/>
<path d="M163.803 536.293C168.036 537.12 172.108 539.13 175.624 542.131C177.444 543.684 179.143 545.544 180.239 547.903C180.833 549.179 181.241 550.619 181.196 552.088C181.155 553.553 180.606 555.043 179.607 555.853C178.052 557.116 175.926 556.453 174.306 555.316C171.569 553.393 169.492 550.325 167.8 547.068C166.107 543.81 164.744 540.314 163.058 537.056" fill="#FF5E1E"/>
<path d="M162.629 544.255C169.66 544.255 169.671 530.899 162.629 530.899C155.597 530.899 155.587 544.255 162.629 544.255Z" fill="#000601"/>
<path d="M60.1402 904.495C62.1693 889.804 66.9519 875.692 74.0212 863.553C77.6811 857.269 82.0484 851.405 87.5657 847.656C90.5459 845.629 93.9106 844.24 97.3199 844.429C100.729 844.617 104.173 846.557 106.037 850.053C108.938 855.497 107.338 862.864 104.647 868.468C100.108 877.929 92.9149 885.077 85.2998 890.874C77.6846 896.671 69.5132 901.322 61.8912 907.102" fill="white"/>
<path d="M61.6886 903.299C71.9406 895.24 83.6964 890.068 95.7955 888.284C102.061 887.361 108.547 887.361 114.528 889.825C117.762 891.155 120.866 893.263 123.046 896.469C125.226 899.676 126.369 904.096 125.511 908.134C124.172 914.422 118.641 917.936 113.436 919.279C104.657 921.546 95.4933 919.854 86.8619 916.874C78.227 913.889 69.9149 909.637 61.2869 906.636" fill="white"/>
<path d="M64.0542 901.427C53.5173 908.915 41.583 913.44 29.4324 914.557C23.139 915.136 16.6603 914.779 10.7756 911.992C7.59285 910.485 4.56807 908.21 2.50807 904.89C0.448059 901.565 -0.533885 897.086 0.472085 893.099C2.04112 886.891 7.69584 883.688 12.942 882.63C21.7932 880.846 30.8881 883.037 39.4028 886.488C47.9175 889.942 56.0648 894.643 64.5761 898.115" fill="white"/>
<path d="M63.8791 907.098C53.8469 898.64 45.4077 887.369 39.3993 874.407C36.2887 867.696 33.7893 860.379 33.3395 852.681C33.0991 848.521 33.4905 844.206 35.0699 840.508C36.6492 836.81 39.547 833.817 42.9219 833.23C48.1853 832.319 52.9679 837.205 55.9858 842.557C61.0809 851.585 63.3366 862.575 64.4147 873.463C65.4893 884.351 65.4859 895.37 66.5468 906.258" fill="white"/>
<path d="M64.9331 909.234C70.5467 922.456 73.6779 937.248 74.0109 952.141C74.1826 959.856 73.5852 967.752 71.0273 974.804C69.6437 978.615 67.6421 982.2 64.8302 984.563C62.0148 986.922 58.3102 987.908 55.1001 986.485C50.1011 984.273 47.7527 977.217 47.1416 970.757C46.1047 959.865 48.3295 948.863 51.5568 938.629C54.7842 928.396 59.0175 918.67 62.2586 908.441" fill="white"/>
<path d="M60.4629 906.85C57.0845 921.168 51.0247 934.524 42.8773 945.606C38.6578 951.344 33.7755 956.565 27.9492 959.525C24.8008 961.124 21.3297 962.039 17.9581 961.38C14.59 960.721 11.3455 958.316 9.82108 954.584C7.44177 948.771 9.71465 941.677 12.9077 936.48C18.2946 927.707 26.102 921.604 34.2047 916.899C42.3074 912.193 50.8564 908.705 58.966 904.017" fill="white"/>
<path d="M65.8155 908.147C77.8494 910.493 89.4369 916.215 99.4279 924.748C104.602 929.164 109.436 934.453 112.554 941.16C114.239 944.787 115.403 948.888 115.283 953.056C115.16 957.224 113.604 961.456 110.761 963.764C106.332 967.361 100.297 965.468 95.6856 962.232C87.9056 956.771 81.9934 948.04 77.1867 938.781C72.3766 929.521 68.5004 919.577 63.704 910.309" fill="white"/>
<path d="M62.4783 930.793C82.4707 930.793 82.505 892.809 62.4783 892.809C42.4894 892.809 42.455 930.793 62.4783 930.793Z" fill="#000601"/>
<path d="M1319.95 497.961C1321.33 488 1324.57 478.434 1329.37 470.207C1331.85 465.946 1334.81 461.971 1338.55 459.427C1340.57 458.055 1342.85 457.11 1345.16 457.241C1347.47 457.371 1349.8 458.685 1351.07 461.052C1353.04 464.746 1351.95 469.737 1350.13 473.535C1347.05 479.949 1342.18 484.793 1337.01 488.726C1331.85 492.655 1326.31 495.807 1321.14 499.728" fill="#FCFCFC"/>
<path d="M1321 497.151C1327.95 491.69 1335.92 488.181 1344.13 486.972C1348.37 486.346 1352.77 486.346 1356.83 488.017C1359.02 488.919 1361.12 490.347 1362.6 492.521C1364.08 494.695 1364.86 497.692 1364.27 500.429C1363.36 504.694 1359.61 507.074 1356.09 507.984C1350.14 509.521 1343.92 508.375 1338.07 506.352C1332.22 504.328 1326.58 501.445 1320.73 499.409" fill="#FCFCFC"/>
<path d="M1322.61 495.883C1315.46 500.958 1307.37 504.026 1299.13 504.786C1294.86 505.18 1290.47 504.937 1286.48 503.048C1284.33 502.028 1282.28 500.483 1280.88 498.234C1279.48 495.979 1278.81 492.945 1279.5 490.241C1280.56 486.031 1284.39 483.861 1287.95 483.143C1293.95 481.935 1300.11 483.421 1305.89 485.759C1311.66 488.101 1317.18 491.291 1322.96 493.641" fill="#FCFCFC"/>
<path d="M1322.49 499.728C1315.69 493.994 1309.97 486.355 1305.89 477.565C1303.78 473.015 1302.09 468.053 1301.79 462.836C1301.62 460.015 1301.89 457.089 1302.96 454.584C1304.03 452.078 1305.99 450.046 1308.28 449.647C1311.85 449.03 1315.09 452.342 1317.14 455.969C1320.59 462.089 1322.12 469.539 1322.85 476.923C1323.58 484.306 1323.58 491.774 1324.3 499.157" fill="#FCFCFC"/>
<path d="M1323.2 501.176C1327.01 510.142 1329.13 520.166 1329.36 530.265C1329.48 535.495 1329.07 540.847 1327.34 545.628C1326.4 548.214 1325.04 550.644 1323.13 552.243C1321.22 553.842 1318.71 554.51 1316.54 553.549C1313.15 552.05 1311.56 547.265 1311.14 542.887C1310.44 535.499 1311.94 528.044 1314.14 521.106C1316.32 514.167 1319.19 507.573 1321.39 500.639" fill="#FCFCFC"/>
<path d="M1320.17 499.56C1317.88 509.265 1313.77 518.323 1308.25 525.832C1305.39 529.723 1302.08 533.262 1298.13 535.268C1295.99 536.355 1293.64 536.973 1291.35 536.528C1289.07 536.083 1286.87 534.45 1285.84 531.919C1284.22 527.977 1285.77 523.167 1287.93 519.645C1291.58 513.697 1296.87 509.559 1302.37 506.368C1307.86 503.178 1313.66 500.815 1319.15 497.638" fill="#FCFCFC"/>
<path d="M1323.8 500.437C1331.96 502.028 1339.81 505.907 1346.59 511.691C1350.1 514.684 1353.37 518.268 1355.49 522.818C1356.63 525.278 1357.42 528.057 1357.34 530.882C1357.25 533.707 1356.2 536.574 1354.27 538.14C1351.27 540.578 1347.18 539.298 1344.05 537.103C1338.78 533.4 1334.77 527.482 1331.51 521.207C1328.25 514.931 1325.62 508.186 1322.36 501.906" fill="#FCFCFC"/>
<path d="M1321.54 515.788C1335.09 515.788 1335.11 490.036 1321.54 490.036C1307.99 490.04 1307.97 515.788 1321.54 515.788Z" fill="#000601"/>
<path d="M434.722 47.7386C436.078 37.929 439.271 28.5056 443.992 20.4001C446.436 16.2026 449.351 12.2863 453.035 9.78457C455.026 8.43297 457.272 7.50115 459.548 7.62707C461.824 7.753 464.125 9.04999 465.368 11.3838C467.304 15.0189 466.236 19.9384 464.441 23.6826C461.409 29.9999 456.606 34.7724 451.521 38.6425C446.436 42.5127 440.981 45.6188 435.889 49.4805" fill="#FF5E1E"/>
<path d="M435.755 46.9411C442.601 41.5598 450.453 38.1053 458.532 36.9132C462.717 36.2961 467.046 36.2962 471.043 37.9416C473.202 38.8315 475.276 40.2376 476.732 42.3783C478.188 44.5191 478.953 47.4741 478.377 50.169C477.484 54.3707 473.786 56.7129 470.315 57.6111C464.454 59.1264 458.333 57.9973 452.568 56.0035C446.803 54.0097 441.252 51.1722 435.491 49.1658" fill="#FF5E1E"/>
<path d="M437.334 45.6902C430.299 50.6895 422.327 53.7117 414.214 54.4589C410.012 54.845 405.686 54.6057 401.755 52.7462C399.629 51.7388 397.611 50.2193 396.234 48.003C394.857 45.7825 394.201 42.7897 394.874 40.1285C395.921 35.9813 399.698 33.8406 403.2 33.1354C409.112 31.9433 415.186 33.4083 420.871 35.7127C426.557 38.0171 431.999 41.1611 437.681 43.4781" fill="#FF5E1E"/>
<path d="M437.218 49.4764C430.519 43.8266 424.885 36.3046 420.871 27.6451C418.794 23.1621 417.126 18.2762 416.827 13.1384C416.666 10.3597 416.927 7.48017 417.984 5.00783C419.038 2.53968 420.974 0.537444 423.23 0.147074C426.746 -0.461567 429.939 2.79995 431.954 6.37624C435.357 12.4039 436.864 19.7453 437.582 27.0154C438.299 34.2855 438.296 41.6438 439.006 48.9181" fill="#FF5E1E"/>
<path d="M437.921 50.9035C441.671 59.7351 443.762 69.6119 443.985 79.5559C444.101 84.7062 443.7 89.9783 441.99 94.6879C441.066 97.2358 439.731 99.6284 437.853 101.202C435.975 102.777 433.499 103.436 431.357 102.487C428.02 101.009 426.451 96.2956 426.042 91.9847C425.349 84.7104 426.835 77.3606 428.991 70.527C431.147 63.6934 433.973 57.1956 436.136 50.3662" fill="#FF5E1E"/>
<path d="M434.938 49.3127C432.682 58.8746 428.634 67.7944 423.196 75.1946C420.377 79.027 417.119 82.5109 413.225 84.4921C411.121 85.5625 408.803 86.1711 406.554 85.7304C404.306 85.2896 402.139 83.682 401.119 81.1929C399.53 77.3102 401.051 72.5753 403.179 69.104C406.774 63.2443 411.989 59.1684 417.404 56.0287C422.815 52.8889 428.524 50.5593 433.939 47.428" fill="#FF5E1E"/>
<path d="M438.512 50.1774C446.549 51.743 454.285 55.567 460.959 61.263C464.413 64.2139 467.644 67.744 469.725 72.2227C470.851 74.6447 471.63 77.3815 471.548 80.1687C471.465 82.9516 470.425 85.7766 468.53 87.3171C465.574 89.7181 461.539 88.4546 458.463 86.2929C453.269 82.6452 449.32 76.8148 446.11 70.6319C442.896 64.4489 440.308 57.8085 437.104 51.6171" fill="#FF5E1E"/>
<path d="M436.284 65.301C449.636 65.301 449.657 39.9354 436.284 39.9354C422.935 39.9354 422.911 65.301 436.284 65.301Z" fill="#000601"/>
<path d="M1139.17 99.1667C1140.52 89.357 1143.72 79.9336 1148.44 71.8282C1150.88 67.6307 1153.8 63.7143 1157.48 61.2126C1159.47 59.861 1161.72 58.9292 1164 59.0551C1166.27 59.1811 1168.57 60.478 1169.81 62.8119C1171.75 66.4469 1170.68 71.3665 1168.89 75.1106C1165.86 81.4279 1161.05 86.2005 1155.97 90.0706C1150.88 93.9407 1145.43 97.0469 1140.34 100.904" fill="#FF5E1E"/>
<path d="M1140.2 98.3691C1147.05 92.9879 1154.9 89.5333 1162.98 88.3412C1167.16 87.7242 1171.49 87.7242 1175.49 89.3696C1177.65 90.2595 1179.72 91.6657 1181.18 93.8064C1182.63 95.9471 1183.4 98.9022 1182.83 101.597C1181.93 105.799 1178.24 108.141 1174.77 109.039C1168.9 110.555 1162.78 109.425 1157.02 107.432C1151.25 105.438 1145.7 102.6 1139.94 100.594" fill="#FF5E1E"/>
<path d="M1141.78 97.1183C1134.75 102.118 1126.77 105.14 1118.66 105.887C1114.46 106.273 1110.13 106.034 1106.2 104.174C1104.08 103.167 1102.06 101.652 1100.68 99.4311C1099.3 97.2106 1098.65 94.2219 1099.32 91.5607C1100.37 87.4136 1104.14 85.2729 1107.65 84.5677C1113.56 83.3756 1119.63 84.8405 1125.32 87.145C1131 89.4494 1136.45 92.5933 1142.13 94.9104" fill="#FF5E1E"/>
<path d="M1141.66 100.904C1134.97 95.2546 1129.33 87.7326 1125.32 79.0731C1123.24 74.5902 1121.57 69.7042 1121.27 64.5665C1121.11 61.7877 1121.37 58.9082 1122.43 56.4359C1123.48 53.9677 1125.42 51.9656 1127.68 51.5752C1131.19 50.9666 1134.39 54.228 1136.4 57.8043C1139.8 63.8319 1141.31 71.1734 1142.03 78.4435C1142.75 85.7136 1142.74 93.0719 1143.45 100.346" fill="#FF5E1E"/>
<path d="M1142.37 102.332C1146.12 111.163 1148.21 121.04 1148.43 130.984C1148.55 136.134 1148.15 141.406 1146.44 146.116C1145.51 148.664 1144.18 151.056 1142.3 152.631C1140.42 154.205 1137.95 154.864 1135.8 153.915C1132.47 152.437 1130.9 147.724 1130.49 143.413C1129.8 136.138 1131.28 128.789 1133.44 121.955C1135.59 115.121 1138.42 108.628 1140.58 101.799" fill="#FF5E1E"/>
<path d="M1139.38 100.741C1137.13 110.303 1133.08 119.222 1127.64 126.623C1124.82 130.455 1121.57 133.939 1117.67 135.92C1115.57 136.991 1113.25 137.599 1111 137.158C1108.75 136.718 1106.59 135.11 1105.57 132.621C1103.98 128.738 1105.5 124.003 1107.63 120.532C1111.22 114.672 1116.44 110.596 1121.85 107.457C1127.26 104.317 1132.97 101.987 1138.39 98.856" fill="#FF5E1E"/>
<path d="M1142.96 101.605C1151 103.171 1158.73 106.995 1165.41 112.691C1168.86 115.642 1172.09 119.172 1174.17 123.651C1175.3 126.073 1176.08 128.81 1175.99 131.593C1175.91 134.375 1174.87 137.2 1172.97 138.741C1170.02 141.142 1165.99 139.878 1162.91 137.717C1157.71 134.069 1153.76 128.239 1150.55 122.056C1147.34 115.873 1144.75 109.232 1141.55 103.041" fill="#FF5E1E"/>
<path d="M1140.73 116.729C1154.08 116.729 1154.1 91.3634 1140.73 91.3634C1127.38 91.3634 1127.36 116.729 1140.73 116.729Z" fill="#000601"/>
<path d="M1285.35 1052.65C1286.71 1042.84 1289.9 1033.42 1294.62 1025.31C1297.06 1021.11 1299.98 1017.2 1303.66 1014.7C1305.65 1013.34 1307.9 1012.42 1310.18 1012.54C1312.45 1012.67 1314.75 1013.96 1316 1016.3C1317.93 1019.93 1316.86 1024.85 1315.07 1028.59C1312.04 1034.91 1307.23 1039.68 1302.15 1043.55C1297.06 1047.43 1291.61 1050.53 1286.52 1054.39" fill="#FF5E1E"/>
<path d="M1286.38 1051.85C1293.23 1046.47 1301.08 1043.01 1309.16 1041.82C1313.35 1041.2 1317.67 1041.2 1321.67 1042.85C1323.83 1043.74 1325.9 1045.15 1327.36 1047.29C1328.82 1049.43 1329.58 1052.38 1329 1055.08C1328.11 1059.28 1324.41 1061.62 1320.94 1062.52C1315.08 1064.03 1308.96 1062.91 1303.2 1060.91C1297.43 1058.92 1291.88 1056.08 1286.12 1054.07" fill="#FF5E1E"/>
<path d="M1287.96 1050.6C1280.93 1055.6 1272.96 1058.62 1264.84 1059.37C1260.64 1059.76 1256.31 1059.52 1252.38 1057.66C1250.26 1056.65 1248.24 1055.13 1246.86 1052.92C1245.49 1050.69 1244.83 1047.71 1245.5 1045.04C1246.55 1040.89 1250.33 1038.75 1253.83 1038.05C1259.74 1036.86 1265.81 1038.32 1271.5 1040.63C1277.19 1042.93 1282.63 1046.07 1288.31 1048.39" fill="#FF5E1E"/>
<path d="M1287.85 1054.39C1281.15 1048.74 1275.51 1041.22 1271.5 1032.56C1269.42 1028.07 1267.75 1023.19 1267.46 1018.05C1267.29 1015.27 1267.55 1012.39 1268.61 1009.92C1269.67 1007.46 1271.6 1005.45 1273.86 1005.06C1277.37 1004.45 1280.57 1007.72 1282.58 1011.29C1285.99 1017.32 1287.49 1024.66 1288.21 1031.93C1288.93 1039.2 1288.92 1046.56 1289.63 1053.83" fill="#FF5E1E"/>
<path d="M1288.55 1055.82C1292.3 1064.65 1294.39 1074.52 1294.61 1084.47C1294.73 1089.62 1294.33 1094.89 1292.62 1099.6C1291.69 1102.15 1290.36 1104.54 1288.48 1106.11C1286.6 1107.69 1284.12 1108.35 1281.98 1107.4C1278.64 1105.92 1277.08 1101.21 1276.67 1096.9C1275.97 1089.62 1277.46 1082.28 1279.62 1075.44C1281.77 1068.61 1284.6 1062.11 1286.76 1055.28" fill="#FF5E1E"/>
<path d="M1285.56 1054.22C1283.31 1063.79 1279.26 1072.71 1273.82 1080.11C1271.01 1083.94 1267.74 1087.42 1263.85 1089.4C1261.75 1090.47 1259.43 1091.08 1257.18 1090.64C1254.93 1090.2 1252.76 1088.59 1251.74 1086.11C1250.15 1082.22 1251.68 1077.49 1253.8 1074.02C1257.4 1068.16 1262.61 1064.08 1268.03 1060.94C1273.44 1057.8 1279.15 1055.47 1284.56 1052.34" fill="#FF5E1E"/>
<path d="M1289.14 1055.09C1297.18 1056.66 1304.91 1060.48 1311.59 1066.18C1315.04 1069.13 1318.27 1072.66 1320.35 1077.14C1321.48 1079.56 1322.26 1082.29 1322.18 1085.08C1322.09 1087.86 1321.05 1090.68 1319.15 1092.23C1316.2 1094.63 1312.17 1093.36 1309.09 1091.2C1303.89 1087.55 1299.95 1081.72 1296.73 1075.54C1293.52 1069.36 1290.93 1062.72 1287.73 1056.53" fill="#FF5E1E"/>
<path d="M1286.91 1070.21C1300.26 1070.21 1300.28 1044.84 1286.91 1044.84C1273.56 1044.84 1273.54 1070.21 1286.91 1070.21Z" fill="#000601"/>
<path d="M1313.15 615.928C1313.15 620 1310.45 623.299 1307.12 623.299C1303.79 623.299 1301.09 620 1301.09 615.928C1301.09 611.856 1303.79 608.557 1307.12 608.557C1310.45 608.561 1313.15 611.861 1313.15 615.928Z" fill="white"/>
<path d="M1397.29 736.036C1404.87 736.036 1411.02 728.517 1411.02 719.242C1411.02 709.966 1404.87 702.447 1397.29 702.447C1389.7 702.447 1383.55 709.966 1383.55 719.242C1383.55 728.517 1389.7 736.036 1397.29 736.036Z" fill="white"/>
<path d="M757.865 78.5862C757.865 85.2729 753.429 90.6961 747.959 90.6961C742.487 90.6961 738.054 85.2729 738.054 78.5862C738.054 71.8996 742.49 66.4763 747.959 66.4763C753.429 66.4763 757.865 71.8954 757.865 78.5862Z" fill="white"/>
<path d="M74.7113 1084.39C74.7113 1097.26 66.176 1107.7 55.6459 1107.7C45.1159 1107.7 36.5806 1097.26 36.5806 1084.39C36.5806 1071.51 45.1159 1061.08 55.6459 1061.08C66.176 1061.08 74.7113 1071.51 74.7113 1084.39Z" fill="white"/>
<path d="M458.755 464.8C458.755 468.872 456.056 472.171 452.726 472.171C449.396 472.171 446.697 468.872 446.697 464.8C446.697 460.729 449.396 457.429 452.726 457.429C456.056 457.429 458.755 460.729 458.755 464.8Z" fill="white"/>
<path d="M290.84 145.742C290.84 149.814 288.142 153.113 284.811 153.113C281.481 153.113 278.782 149.814 278.782 145.742C278.782 141.671 281.481 138.372 284.811 138.372C288.142 138.372 290.84 141.671 290.84 145.742Z" fill="white"/>
<path d="M1391.26 922.368C1391.26 926.44 1388.56 929.739 1385.23 929.739C1381.9 929.739 1379.2 926.44 1379.2 922.368C1379.2 918.297 1381.9 914.997 1385.23 914.997C1388.56 914.997 1391.26 918.297 1391.26 922.368Z" fill="white"/>
<path d="M67.7038 774.993C67.7038 779.065 65.0052 782.364 61.6749 782.364C58.3445 782.364 55.6459 779.065 55.6459 774.993C55.6459 770.921 58.3445 767.622 61.6749 767.622C65.0052 767.622 67.7038 770.921 67.7038 774.993Z" fill="white"/>
<path d="M1168.13 228.518C1168.13 232.589 1165.43 235.888 1162.1 235.888C1158.77 235.888 1156.07 232.589 1156.07 228.518C1156.07 224.446 1158.77 221.147 1162.1 221.147C1165.43 221.147 1168.13 224.446 1168.13 228.518Z" fill="white"/>
<path d="M1222.39 1136.16C1222.39 1140.23 1219.69 1143.53 1216.36 1143.53C1213.03 1143.53 1210.33 1140.23 1210.33 1136.16C1210.33 1132.08 1213.03 1128.79 1216.36 1128.79C1219.69 1128.79 1222.39 1132.08 1222.39 1136.16Z" fill="white"/>
<path d="M507.014 409.229C507.014 409.229 532.555 463.205 507.014 539.487L1124.02 530.567L1130.23 527.889V424.395L1114.9 409.229H507.014Z" fill="#FCFCFC"/>
<path d="M1105.05 411.458C1105.05 411.458 1129.13 456.959 1105.05 533.241C1105.05 533.241 1133.69 523.427 1133.51 476.587C1133.33 429.747 1121.1 412.797 1105.05 411.458Z" fill="#878784"/>
<path d="M492.419 544.255C492.364 536.947 497.167 530.966 503.145 530.903L1103.44 524.25C1115.59 524.116 1125.85 505.793 1125.85 484.252V457.119C1125.85 435.439 1115.53 417.121 1103.31 417.121H503.241C497.263 417.121 492.415 411.194 492.415 403.886C492.415 396.578 497.263 390.651 503.241 390.651H1103.3C1127.67 390.651 1147.49 420.466 1147.49 457.119V484.252C1147.49 521.244 1128.23 550.442 1103.64 550.719L503.34 557.373C497.363 557.436 492.47 551.563 492.419 544.255Z" fill="#061760"/>
<path d="M1031.95 439.838H614.045V443.259H1031.95V439.838Z" fill="#DDDDDD"/>
<path d="M1057.71 470.639H586.647V474.06H1057.71V470.639Z" fill="#DDDDDD"/>
<path d="M1031.95 501.441H614.045V504.862H1031.95V501.441Z" fill="#DDDDDD"/>
<path d="M436.352 735.499C436.352 735.499 461.893 789.475 436.352 865.756L1053.36 856.832L1059.57 854.154V750.66L1044.24 735.495L436.352 735.499Z" fill="#FCFCFC"/>
<path d="M1034.39 737.727C1034.39 737.727 1058.47 783.229 1034.39 859.51C1034.39 859.51 1063.03 849.696 1062.85 802.856C1062.67 756.016 1050.44 739.066 1034.39 737.727Z" fill="#878784"/>
<path d="M421.754 870.525C421.699 863.217 426.502 857.235 432.48 857.172L1032.78 850.519C1044.92 850.385 1055.18 832.063 1055.18 810.521V783.388C1055.18 761.708 1044.86 743.39 1032.64 743.39H432.579C426.602 743.39 421.754 737.467 421.754 730.155C421.754 722.847 426.602 716.92 432.579 716.92H1032.64C1057.01 716.92 1076.83 746.735 1076.83 783.388V810.521C1076.83 847.518 1057.57 876.712 1032.97 876.989L432.675 883.642C426.701 883.705 421.809 877.832 421.754 870.525Z" fill="#FF5E1E"/>
<path d="M961.29 766.107H543.384V769.528H961.29V766.107Z" fill="#DDDDDD"/>
<path d="M987.044 796.908H515.985V800.329H987.044V796.908Z" fill="#DDDDDD"/>
<path d="M961.29 827.71H543.384V831.131H961.29V827.71Z" fill="#DDDDDD"/>
<path d="M284.815 570.057C284.815 570.057 316.227 624.823 284.815 702.221L1043.65 693.167L1051.27 690.451V585.441L1032.43 570.053L284.815 570.057Z" fill="#FCFCFC"/>
<path d="M1023.62 572.324C1023.62 572.324 1050.44 618.493 1023.62 695.891C1023.62 695.891 1055.52 685.934 1055.31 638.41C1055.11 590.877 1041.5 573.68 1023.62 572.324Z" fill="#878784"/>
<path d="M266.862 707.065C266.797 699.648 272.702 693.582 280.053 693.515L1018.33 686.765C1033.27 686.627 1045.89 668.04 1045.89 646.18V618.648C1045.89 596.653 1033.19 578.062 1018.16 578.062H280.176C272.822 578.062 266.862 572.051 266.862 564.634C266.862 557.217 272.822 551.206 280.176 551.206H1018.16C1048.13 551.206 1072.51 581.458 1072.51 618.648V646.18C1072.51 683.714 1048.82 713.336 1018.57 713.621L280.293 720.371C272.942 720.438 266.931 714.477 266.862 707.065Z" fill="#FFD357"/>
<path d="M930.411 601.115H416.446V604.586H930.411V601.115Z" fill="#DDDDDD"/>
<path d="M962.083 632.37H382.751V635.841H962.083V632.37Z" fill="#DDDDDD"/>
<path d="M930.411 663.624H416.446V667.096H930.411V663.624Z" fill="#DDDDDD"/>
<path d="M226.984 895.5C226.984 895.5 258.395 949.476 226.984 1025.76L985.815 1016.84L993.444 1014.16V910.665L974.594 895.5H226.984Z" fill="#FCFCFC"/>
<path d="M964.473 899.391C964.473 899.391 991.291 944.892 964.473 1021.17C964.473 1021.17 996.369 1011.36 996.166 964.52C995.964 917.68 982.354 900.73 964.473 899.391Z" fill="#878784"/>
<path d="M209.034 1030.53C208.969 1023.22 214.874 1017.24 222.225 1017.18L960.501 1010.52C975.439 1010.39 988.06 992.068 988.06 970.526V943.394C988.06 921.713 975.363 903.395 960.336 903.395H222.345C214.994 903.395 209.031 897.473 209.031 890.161C209.031 882.853 214.991 876.926 222.345 876.926H960.332C990.302 876.926 1014.68 906.741 1014.68 943.394V970.526C1014.68 1007.52 990.989 1036.72 960.741 1036.99L222.462 1043.65C215.115 1043.71 209.099 1037.84 209.034 1030.53Z" fill="#FFD357"/>
<path d="M872.579 926.112H358.615V929.533H872.579V926.112Z" fill="#DDDDDD"/>
<path d="M904.256 956.914H324.923V960.335H904.256V956.914Z" fill="#DDDDDD"/>
<path d="M872.579 987.715H358.615V991.136H872.579V987.715Z" fill="#DDDDDD"/>
<path d="M367.462 1052.52C367.462 1052.52 398.874 1119.18 367.462 1213.38L1126.29 1202.36L1133.92 1199.06V1071.25L1115.07 1052.52H367.462V1052.52Z" fill="#FCFCFC"/>
<path d="M1104.95 1056.42C1104.95 1056.42 1131.77 1115.06 1104.95 1213.38C1104.95 1213.38 1136.85 1200.73 1136.64 1140.36C1136.44 1079.99 1122.83 1058.14 1104.95 1056.42Z" fill="#878784"/>
<path d="M349.509 1222.29C349.444 1213.32 355.349 1205.99 362.7 1205.91L1100.98 1197.76C1115.91 1197.59 1128.54 1175.13 1128.54 1148.71V1115.44C1128.54 1088.86 1115.84 1066.4 1100.81 1066.4H362.824C355.47 1066.4 349.509 1059.13 349.509 1050.17C349.509 1041.21 355.47 1033.94 362.824 1033.94H1100.81C1130.78 1033.94 1155.16 1070.5 1155.16 1115.44V1148.71C1155.16 1194.07 1131.47 1229.86 1101.22 1230.2L362.941 1238.36C355.59 1238.45 349.578 1231.25 349.509 1222.29Z" fill="#061760"/>
<path d="M1013.06 1100.44H499.093V1103.86H1013.06V1100.44Z" fill="#DDDDDD"/>
<path d="M1044.73 1131.25H465.402V1134.67H1044.73V1131.25Z" fill="#DDDDDD"/>
<path d="M1013.06 1162.05H499.093V1165.47H1013.06V1162.05Z" fill="#DDDDDD"/>
<path d="M1110.18 366.415C1110.18 331.554 1088.01 302.738 1059.55 300.547C1000.38 295.989 901.423 291.644 829.687 305.341C884.771 292.916 1018.86 265.342 1099.87 271.391C1097.56 246.55 1080.58 227.594 1060.13 227.149C999.222 225.823 874.677 229.198 799.281 273.33C799.281 273.33 907.541 185.577 1081.63 194.79C1080.24 152.794 1050.69 120.595 1016.41 123.642C950.225 129.523 844.488 154.104 762.798 244.728C762.798 244.728 821.488 109.95 946.798 62.9211C940.299 55.588 930.994 53.3759 922.717 57.1831C884.294 74.8421 777.078 132.722 751.812 238.252C726.546 132.722 619.329 74.8421 580.907 57.1831C572.629 53.3801 563.324 55.588 556.825 62.9211C682.135 109.95 740.825 244.728 740.825 244.728C659.135 154.104 553.399 129.527 487.217 123.642C452.929 120.595 423.388 152.794 421.994 194.79C596.082 185.581 704.342 273.33 704.342 273.33C628.946 229.198 504.401 225.823 443.494 227.149C423.045 227.594 406.063 246.55 403.753 271.391C484.766 265.342 618.852 292.912 673.936 305.341C602.204 291.644 503.248 295.989 444.071 300.547C415.612 302.738 393.442 331.554 393.442 366.415L751.29 375.922V375.951L751.808 375.939L752.327 375.951V375.922L1110.18 366.415Z" fill="#FEFFFF"/>
<path d="M757.882 403.605C747.365 403.605 737.858 397.203 731.349 390.319C730.103 389.001 728.485 388.33 726.837 388.33H379.678C375.757 388.33 372.578 384.443 372.578 379.649V365.961C372.578 361.168 375.757 357.281 379.678 357.281H731.424C733.44 357.281 735.356 358.326 736.705 360.156C737.525 361.247 757.765 387.591 776.487 360.437L776.535 360.366C777.884 358.41 779.869 357.281 781.963 357.281H1123.35C1127.27 357.281 1130.45 361.168 1130.45 365.961V379.649C1130.45 384.443 1127.27 388.33 1123.35 388.33H786.99C785.077 388.33 783.278 389.308 781.888 390.911C773.867 400.154 765.603 403.605 757.882 403.605Z" fill="#1BC7AB"/>
<path d="M773.771 263.735C778.561 259.869 783.519 256.301 788.473 252.775C801.64 243.406 815.122 234.705 828.821 226.557C848.529 214.834 868.703 204.281 889.283 195.055C913.536 184.179 938.362 175.133 963.625 168.497C991.102 161.277 1019.13 156.929 1047.25 156.559C1050.8 156.513 1054.35 156.53 1057.9 156.61C1059.42 156.643 1059.42 153.764 1057.9 153.73C1029.56 153.096 1001.23 156.601 973.41 163.133C947.471 169.219 921.961 177.929 897.042 188.603C875.735 197.729 854.836 208.294 834.428 220.089C819.709 228.597 805.228 237.739 791.089 247.612C784.94 251.906 778.684 256.183 772.824 261.061C772.745 261.128 772.666 261.187 772.587 261.25C771.323 262.266 772.501 264.759 773.771 263.735Z" fill="#DDDDDD"/>
<path d="M797.561 293.818C802.835 291.972 808.153 290.309 813.474 288.668C827.575 284.319 841.758 280.382 855.996 276.772C876.191 271.651 896.5 267.21 916.904 263.529C940.913 259.197 965.064 255.932 989.293 254.101C1014.4 252.208 1039.63 251.835 1064.74 253.938C1067.72 254.185 1070.7 254.475 1073.67 254.794C1075.18 254.958 1075.17 252.078 1073.67 251.915C1048.64 249.207 1023.45 249.102 998.37 250.605C973.88 252.07 949.462 255.092 925.178 259.193C904.043 262.765 883.003 267.177 862.084 272.315C846.926 276.038 831.826 280.135 816.815 284.676C810.278 286.653 803.617 288.458 797.194 290.947C797.108 290.981 797.018 291.006 796.933 291.04C795.48 291.552 796.098 294.331 797.561 293.818Z" fill="#DDDDDD"/>
<path d="M858.609 333.959C861.644 333.523 864.69 333.162 867.732 332.805C875.697 331.873 883.676 331.101 891.659 330.463C902.841 329.565 914.037 328.931 925.24 328.607C937.933 328.242 950.637 328.276 963.323 328.922C975.769 329.552 988.225 330.731 1000.54 333.048C1001.98 333.317 1003.41 333.607 1004.84 333.909C1005.47 334.043 1006.11 333.703 1006.29 332.902C1006.45 332.209 1006.1 331.264 1005.47 331.13C993.141 328.519 980.654 327.113 968.171 326.316C955.423 325.501 942.651 325.35 929.885 325.61C918.401 325.845 906.92 326.425 895.456 327.285C886.972 327.919 878.495 328.704 870.032 329.661C866.272 330.085 862.509 330.509 858.76 331.059C858.712 331.067 858.661 331.071 858.613 331.08C857.981 331.172 857.435 331.676 857.435 332.52C857.428 333.229 857.971 334.052 858.609 333.959Z" fill="#DDDDDD"/>
<path d="M553.302 163.85C554.181 164.056 555.057 164.283 555.929 164.514C558.415 165.164 560.894 165.861 563.362 166.591C567.183 167.716 570.994 168.917 574.788 170.176C579.712 171.813 584.611 173.551 589.486 175.39C595.296 177.581 601.074 179.91 606.808 182.383C613.207 185.145 619.552 188.079 625.839 191.206C632.582 194.564 639.253 198.144 645.828 201.968C652.77 206.006 659.609 210.317 666.304 214.939C673.112 219.636 679.777 224.66 686.235 230.05C692.7 235.448 698.955 241.219 704.909 247.432C706.375 248.964 707.824 250.517 709.252 252.099C710.375 253.342 712.043 251.31 710.917 250.063C705.053 243.578 698.866 237.534 692.452 231.88C686.063 226.247 679.444 221.004 672.663 216.105C665.995 211.283 659.17 206.791 652.231 202.581C645.553 198.53 638.769 194.744 631.905 191.193C625.42 187.835 618.866 184.679 612.25 181.719C606.341 179.075 600.384 176.586 594.389 174.248C589.25 172.241 584.082 170.348 578.891 168.569C574.778 167.158 570.651 165.819 566.507 164.564C563.675 163.708 560.839 162.885 557.989 162.117C556.691 161.769 555.393 161.403 554.089 161.114C554.034 161.101 553.979 161.089 553.924 161.076C552.448 160.728 551.812 163.502 553.302 163.85Z" fill="#DDDDDD"/>
<path d="M468.533 252.527C473.608 252.485 478.682 252.62 483.753 252.775C497.157 253.182 510.55 253.976 523.923 255.079C542.934 256.649 561.913 258.861 580.814 261.8C602.767 265.212 624.63 269.611 646.257 275.337C668.35 281.188 690.248 288.412 711.508 297.844C714.124 299.002 716.726 300.199 719.318 301.428C720.733 302.1 721.344 299.317 719.943 298.65C698.681 288.572 676.693 280.865 654.48 274.627C632.74 268.524 610.739 263.844 588.638 260.175C569.257 256.96 549.79 254.509 530.285 252.746C516.068 251.461 501.826 250.529 487.574 250.017C481.34 249.791 475.026 249.371 468.787 249.644C468.701 249.648 468.616 249.644 468.53 249.644C467.016 249.66 467.012 252.54 468.533 252.527Z" fill="#DDDDDD"/>
<path d="M448.815 334.459C452.939 334.043 457.069 333.737 461.2 333.439C472.076 332.654 482.963 332.1 493.857 331.726C509.514 331.189 525.18 331.034 540.839 331.302C559.005 331.617 577.168 332.499 595.289 334.161C614.121 335.886 632.922 338.434 651.537 342.354C653.728 342.816 655.918 343.299 658.102 343.798C659.585 344.138 660.22 341.364 658.727 341.02C640.235 336.78 621.533 333.964 602.794 332.012C584.391 330.093 565.934 329.027 547.473 328.561C531.367 328.154 515.254 328.213 499.152 328.679C487.496 329.015 475.846 329.556 464.207 330.349C459.146 330.694 454.062 330.979 449.011 331.563C448.946 331.571 448.881 331.575 448.819 331.584C447.315 331.73 447.305 334.61 448.815 334.459Z" fill="#DDDDDD"/>
</svg>
